# xmcd
#
# Track frame offsets: 
#        183
#        20755
#        36580
#        52985
#        70703
#        88815
#        101145
#        113633
#        132315
#        151430
#        166070
#        181575
#
# Disc length: 2631 seconds
#
# Revision: 4
# Processed by: cddbd v1.5.2PL0 Copyright (c) Steve Scherf et al.
# Submitted via: ExactAudioCopy v0.99pb4
#
DISCID=9a0a450c
DTITLE=Holy, Steve - Blue Moon
DYEAR=2000
DGENRE=Country
TTITLE0=Blue Moon
TTITLE1=One Beat At A Time
TTITLE2=Cold Kisses
TTITLE3=Just A Kiss
TTITLE4=The Hunger
TTITLE5=Tear One
TTITLE6=She's So
TTITLE7=You're Gonna Miss My Love
TTITLE8=Someone's Out To Get Me
TTITLE9=If That's What You Want
TTITLE10=Don't Make Me Beg
TTITLE11=Good Morning Beautiful
EXTD=
EXTT0=
EXTT1=
EXTT2=
EXTT3=
EXTT4=
EXTT5=
EXTT6=
EXTT7=
EXTT8=
EXTT9=
EXTT10=
EXTT11=
PLAYORDER=
